<mxfile host="app.diagrams.net" modified="2023-03-08T12:02:59.974Z" agent="5.0 (Windows)" etag="KJmUUeue9iOqzuQypIPk" version="20.8.20" type="github">
  <diagram name="Page-1" id="bEj8bJd0qBCJQG9FaPjI">
    <mxGraphModel dx="1050" dy="558" grid="1" gridSize="10" guides="1" tooltips="1" connect="1" arrows="1" fold="1" page="1" pageScale="1" pageWidth="850" pageHeight="1100" math="0" shadow="0">
      <root>
        <mxCell id="0" />
        <mxCell id="1" parent="0" />
        <mxCell id="uUT61Bgucy7G17GQlcDF-14" style="edgeStyle=orthogonalEdgeStyle;rounded=0;orthogonalLoop=1;jettySize=auto;html=1;exitX=0.5;exitY=0.5;exitDx=0;exitDy=0;exitPerimeter=0;entryX=0;entryY=0.5;entryDx=0;entryDy=0;movable=0;resizable=0;rotatable=0;deletable=0;editable=0;locked=1;connectable=0;" edge="1" parent="1" target="uUT61Bgucy7G17GQlcDF-15">
          <mxGeometry relative="1" as="geometry">
            <mxPoint x="330" y="110" as="targetPoint" />
            <mxPoint x="165" y="130" as="sourcePoint" />
          </mxGeometry>
        </mxCell>
        <mxCell id="uUT61Bgucy7G17GQlcDF-16" style="edgeStyle=orthogonalEdgeStyle;rounded=0;orthogonalLoop=1;jettySize=auto;html=1;exitX=0.5;exitY=0.5;exitDx=0;exitDy=0;exitPerimeter=0;entryX=0;entryY=0.5;entryDx=0;entryDy=0;movable=0;resizable=0;rotatable=0;deletable=0;editable=0;locked=1;connectable=0;" edge="1" parent="1" target="uUT61Bgucy7G17GQlcDF-17">
          <mxGeometry relative="1" as="geometry">
            <mxPoint x="330" y="160" as="targetPoint" />
            <mxPoint x="165" y="130" as="sourcePoint" />
          </mxGeometry>
        </mxCell>
        <mxCell id="uUT61Bgucy7G17GQlcDF-27" style="edgeStyle=orthogonalEdgeStyle;rounded=0;orthogonalLoop=1;jettySize=auto;html=1;exitX=0.5;exitY=0.5;exitDx=0;exitDy=0;exitPerimeter=0;entryX=0;entryY=0.5;entryDx=0;entryDy=0;movable=0;resizable=0;rotatable=0;deletable=0;editable=0;locked=1;connectable=0;" edge="1" parent="1" target="uUT61Bgucy7G17GQlcDF-26">
          <mxGeometry relative="1" as="geometry">
            <mxPoint x="165" y="130" as="sourcePoint" />
          </mxGeometry>
        </mxCell>
        <mxCell id="uUT61Bgucy7G17GQlcDF-28" style="edgeStyle=orthogonalEdgeStyle;rounded=0;orthogonalLoop=1;jettySize=auto;html=1;exitX=0.5;exitY=0.5;exitDx=0;exitDy=0;exitPerimeter=0;entryX=0;entryY=0.5;entryDx=0;entryDy=0;movable=0;resizable=0;rotatable=0;deletable=0;editable=0;locked=1;connectable=0;" edge="1" parent="1" target="uUT61Bgucy7G17GQlcDF-20">
          <mxGeometry relative="1" as="geometry">
            <mxPoint x="165" y="130" as="sourcePoint" />
          </mxGeometry>
        </mxCell>
        <mxCell id="uUT61Bgucy7G17GQlcDF-31" style="edgeStyle=orthogonalEdgeStyle;rounded=0;orthogonalLoop=1;jettySize=auto;html=1;exitX=0.5;exitY=0.5;exitDx=0;exitDy=0;exitPerimeter=0;entryX=0;entryY=0.5;entryDx=0;entryDy=0;movable=0;resizable=0;rotatable=0;deletable=0;editable=0;locked=1;connectable=0;" edge="1" parent="1">
          <mxGeometry relative="1" as="geometry">
            <mxPoint x="162" y="130" as="sourcePoint" />
            <mxPoint x="357" y="320" as="targetPoint" />
            <Array as="points">
              <mxPoint x="257" y="130" />
              <mxPoint x="257" y="320" />
            </Array>
          </mxGeometry>
        </mxCell>
        <mxCell id="uUT61Bgucy7G17GQlcDF-15" value="Login" style="ellipse;whiteSpace=wrap;html=1;movable=0;resizable=0;rotatable=0;deletable=0;editable=0;locked=1;connectable=0;" vertex="1" parent="1">
          <mxGeometry x="350" y="40" width="90" height="30" as="geometry" />
        </mxCell>
        <mxCell id="uUT61Bgucy7G17GQlcDF-17" value="View Hotels and their Descriptions" style="ellipse;whiteSpace=wrap;html=1;movable=0;resizable=0;rotatable=0;deletable=0;editable=0;locked=1;connectable=0;" vertex="1" parent="1">
          <mxGeometry x="350" y="90" width="130" height="50" as="geometry" />
        </mxCell>
        <mxCell id="uUT61Bgucy7G17GQlcDF-20" value="View Packages in Hotels and book desired Package" style="ellipse;whiteSpace=wrap;html=1;movable=0;resizable=0;rotatable=0;deletable=0;editable=0;locked=1;connectable=0;" vertex="1" parent="1">
          <mxGeometry x="350" y="160" width="180" height="60" as="geometry" />
        </mxCell>
        <mxCell id="uUT61Bgucy7G17GQlcDF-26" value="View Booked Hotels and give ratings and reviews to the Hotels" style="ellipse;whiteSpace=wrap;html=1;movable=0;resizable=0;rotatable=0;deletable=0;editable=0;locked=1;connectable=0;" vertex="1" parent="1">
          <mxGeometry x="350" y="230" width="180" height="60" as="geometry" />
        </mxCell>
        <mxCell id="uUT61Bgucy7G17GQlcDF-30" value="Cancel Booking" style="ellipse;whiteSpace=wrap;html=1;movable=0;resizable=0;rotatable=0;deletable=0;editable=0;locked=1;connectable=0;" vertex="1" parent="1">
          <mxGeometry x="360" y="300" width="110" height="40" as="geometry" />
        </mxCell>
        <mxCell id="uUT61Bgucy7G17GQlcDF-32" value="Actor" style="shape=umlActor;verticalLabelPosition=bottom;verticalAlign=top;html=1;fontColor=none;noLabel=1;movable=0;resizable=0;rotatable=0;deletable=0;editable=0;locked=1;connectable=0;" vertex="1" parent="1">
          <mxGeometry x="140" y="100" width="30" height="60" as="geometry" />
        </mxCell>
        <mxCell id="uUT61Bgucy7G17GQlcDF-34" value="Users" style="text;html=1;align=center;verticalAlign=middle;resizable=0;points=[];autosize=1;strokeColor=none;fillColor=none;fontColor=none;movable=0;rotatable=0;deletable=0;editable=0;locked=1;connectable=0;" vertex="1" parent="1">
          <mxGeometry x="130" y="160" width="50" height="30" as="geometry" />
        </mxCell>
        <mxCell id="uUT61Bgucy7G17GQlcDF-35" style="edgeStyle=orthogonalEdgeStyle;rounded=0;orthogonalLoop=1;jettySize=auto;html=1;exitX=0.5;exitY=0.5;exitDx=0;exitDy=0;exitPerimeter=0;entryX=0;entryY=0.5;entryDx=0;entryDy=0;movable=0;resizable=0;rotatable=0;deletable=0;editable=0;locked=1;connectable=0;" edge="1" parent="1" target="uUT61Bgucy7G17GQlcDF-40">
          <mxGeometry relative="1" as="geometry">
            <mxPoint x="340" y="430" as="targetPoint" />
            <mxPoint x="175" y="450" as="sourcePoint" />
          </mxGeometry>
        </mxCell>
        <mxCell id="uUT61Bgucy7G17GQlcDF-36" style="edgeStyle=orthogonalEdgeStyle;rounded=0;orthogonalLoop=1;jettySize=auto;html=1;exitX=0.5;exitY=0.5;exitDx=0;exitDy=0;exitPerimeter=0;entryX=0;entryY=0.5;entryDx=0;entryDy=0;movable=0;resizable=0;rotatable=0;deletable=0;editable=0;locked=1;connectable=0;" edge="1" parent="1" target="uUT61Bgucy7G17GQlcDF-41">
          <mxGeometry relative="1" as="geometry">
            <mxPoint x="340" y="480" as="targetPoint" />
            <mxPoint x="175" y="450" as="sourcePoint" />
          </mxGeometry>
        </mxCell>
        <mxCell id="uUT61Bgucy7G17GQlcDF-37" style="edgeStyle=orthogonalEdgeStyle;rounded=0;orthogonalLoop=1;jettySize=auto;html=1;exitX=0.5;exitY=0.5;exitDx=0;exitDy=0;exitPerimeter=0;entryX=0;entryY=0.5;entryDx=0;entryDy=0;movable=0;resizable=0;rotatable=0;deletable=0;editable=0;locked=1;connectable=0;" edge="1" parent="1" target="uUT61Bgucy7G17GQlcDF-43">
          <mxGeometry relative="1" as="geometry">
            <mxPoint x="175" y="450" as="sourcePoint" />
          </mxGeometry>
        </mxCell>
        <mxCell id="uUT61Bgucy7G17GQlcDF-38" style="edgeStyle=orthogonalEdgeStyle;rounded=0;orthogonalLoop=1;jettySize=auto;html=1;exitX=0.5;exitY=0.5;exitDx=0;exitDy=0;exitPerimeter=0;entryX=0;entryY=0.5;entryDx=0;entryDy=0;movable=0;resizable=0;rotatable=0;deletable=0;editable=0;locked=1;connectable=0;" edge="1" parent="1" target="uUT61Bgucy7G17GQlcDF-42">
          <mxGeometry relative="1" as="geometry">
            <mxPoint x="175" y="450" as="sourcePoint" />
          </mxGeometry>
        </mxCell>
        <mxCell id="uUT61Bgucy7G17GQlcDF-39" style="edgeStyle=orthogonalEdgeStyle;rounded=0;orthogonalLoop=1;jettySize=auto;html=1;exitX=0.5;exitY=0.5;exitDx=0;exitDy=0;exitPerimeter=0;entryX=0;entryY=0.5;entryDx=0;entryDy=0;movable=0;resizable=0;rotatable=0;deletable=0;editable=0;locked=1;connectable=0;" edge="1" parent="1">
          <mxGeometry relative="1" as="geometry">
            <mxPoint x="172" y="450" as="sourcePoint" />
            <mxPoint x="367" y="640" as="targetPoint" />
            <Array as="points">
              <mxPoint x="267" y="450" />
              <mxPoint x="267" y="640" />
            </Array>
          </mxGeometry>
        </mxCell>
        <mxCell id="uUT61Bgucy7G17GQlcDF-40" value="Login" style="ellipse;whiteSpace=wrap;html=1;movable=0;resizable=0;rotatable=0;deletable=0;editable=0;locked=1;connectable=0;" vertex="1" parent="1">
          <mxGeometry x="360" y="360" width="90" height="30" as="geometry" />
        </mxCell>
        <mxCell id="uUT61Bgucy7G17GQlcDF-41" value="Manage their hotel details in the site" style="ellipse;whiteSpace=wrap;html=1;movable=0;resizable=0;rotatable=0;deletable=0;editable=0;locked=1;connectable=0;" vertex="1" parent="1">
          <mxGeometry x="360" y="410" width="130" height="50" as="geometry" />
        </mxCell>
        <mxCell id="uUT61Bgucy7G17GQlcDF-42" value="Add, edit or remove packages" style="ellipse;whiteSpace=wrap;html=1;movable=0;resizable=0;rotatable=0;deletable=0;editable=0;locked=1;connectable=0;" vertex="1" parent="1">
          <mxGeometry x="360" y="480" width="180" height="60" as="geometry" />
        </mxCell>
        <mxCell id="uUT61Bgucy7G17GQlcDF-43" value="View Bookings and manage bookings" style="ellipse;whiteSpace=wrap;html=1;movable=0;resizable=0;rotatable=0;deletable=0;editable=0;locked=1;connectable=0;" vertex="1" parent="1">
          <mxGeometry x="360" y="550" width="180" height="60" as="geometry" />
        </mxCell>
        <mxCell id="uUT61Bgucy7G17GQlcDF-44" value="Review Customer Feedback" style="ellipse;whiteSpace=wrap;html=1;movable=0;resizable=0;rotatable=0;deletable=0;editable=0;locked=1;connectable=0;" vertex="1" parent="1">
          <mxGeometry x="370" y="620" width="110" height="40" as="geometry" />
        </mxCell>
        <mxCell id="uUT61Bgucy7G17GQlcDF-45" value="Actor" style="shape=umlActor;verticalLabelPosition=bottom;verticalAlign=top;html=1;fontColor=none;noLabel=1;movable=0;resizable=0;rotatable=0;deletable=0;editable=0;locked=1;connectable=0;" vertex="1" parent="1">
          <mxGeometry x="150" y="420" width="30" height="60" as="geometry" />
        </mxCell>
        <mxCell id="uUT61Bgucy7G17GQlcDF-46" value="Hotel Owners" style="text;html=1;align=center;verticalAlign=middle;resizable=0;points=[];autosize=1;strokeColor=none;fillColor=none;fontColor=none;movable=0;rotatable=0;deletable=0;editable=0;locked=1;connectable=0;" vertex="1" parent="1">
          <mxGeometry x="120" y="480" width="90" height="30" as="geometry" />
        </mxCell>
      </root>
    </mxGraphModel>
  </diagram>
</mxfile>
